# xmcd
#
# Track frame offsets: 
#        150
#        20034
#        40331
#        57681
#        81355
#        92002
#        112239
#        137627
#        159652
#        186628
#        202391
#        218861
#
# Disc length: 3387 seconds
#
# Revision: 0
# Processed by: cddbd v1.5.2PL0 Copyright (c) Steve Scherf et al.
# Submitted via: ExactAudioCopyFreeDBPlugin 1.0
#
DISCID=c30d390c
DTITLE=Beth Rowley - Gota Fria
DYEAR=2018
DGENRE=Blues
TTITLE0=Shut It Down
TTITLE1=Howl At The Moon
TTITLE2=Bronze
TTITLE3=Brave Face
TTITLE4=Brother
TTITLE5=Forest Fire
TTITLE6=Princess
TTITLE7=Get It Back
TTITLE8=Only One Cloud
TTITLE9=Run To The Light
TTITLE10=Hide From Your Love
TTITLE11=Gota Fria
EXTD=
EXTT0=
EXTT1=
EXTT2=
EXTT3=
EXTT4=
EXTT5=
EXTT6=
EXTT7=
EXTT8=
EXTT9=
EXTT10=
EXTT11=
PLAYORDER=
